# xmcd
#
# Track frame offsets: 
#        150
#        22895
#        35716
#        53044
#        75006
#        95269
#        113949
#        130469
#        147219
#        170534
#        188701
#        206889
#        225784
#
# Disc length: 3246 seconds
#
# Revision: 25
# Processed by: cddbd v1.5.2PL0 Copyright (c) Steve Scherf et al.
# Submitted via: ExactAudioCopyFreeDBPlugin 1.0
#
DISCID=a00cac0d
DTITLE=Vince Gill - These Days [disc 2] The Reason Why
DYEAR=2006
DGENRE=Country
TTITLE0=What You Don't Say
TTITLE1=The Reason Why
TTITLE2=The Rock of Your Love
TTITLE3=What You Give Away
TTITLE4=Faint of Heart
TTITLE5=Time to Carry On
TTITLE6=No Easy Way
TTITLE7=This Memory of You
TTITLE8=How Lonely Looks
TTITLE9=Tell Me One More Time About Jesus
TTITLE10=Everything and Nothing
TTITLE11=Which Way Will You Go
TTITLE12=These Days
EXTD=
EXTT0=
EXTT1=
EXTT2=
EXTT3=
EXTT4=
EXTT5=
EXTT6=
EXTT7=
EXTT8=
EXTT9=
EXTT10=
EXTT11=
EXTT12=
PLAYORDER=
